<svg xmlns="http://www.w3.org/2000/svg" viewBox="0 0 16 16" width="16" height="16">
  <defs>
    <linearGradient id="t1" x1="0" y1="0" x2="0" y2="1">
      <stop offset="0" stop-color="#ffb547"/>
      <stop offset="1" stop-color="#ff6a3d"/>
    </linearGradient>
  </defs>
  <path d="M8 1.6c.6 1.7 2.6 2.4 2.6 5 0 .9-.4 1.7-1 2.2.4-.5.6-1.1.4-1.7-.2-.7-.8-1-1.4-1.6-.7.9-1 1.7-1.6 2.5-.4-.8-.6-1.7-.4-2.4-.7.6-1.1 1.5-1.1 2.4 0 1.5 1 3 2.5 3.6.5.2 1 .3 1.5.3 2.2 0 4-1.7 4-3.9 0-2.8-2.5-4.4-3.9-7.4-.3.4-.5.7-.6 1Z" fill="url(#t1)"/>
</svg>
