<svg xmlns="http://www.w3.org/2000/svg" viewBox="0 0 16 16" width="16" height="16">
  <defs>
    <linearGradient id="t5" x1="0" y1="0" x2="0" y2="1">
      <stop offset="0" stop-color="#fff7d8"/>
      <stop offset=".4" stop-color="#ffd95a"/>
      <stop offset=".75" stop-color="#ff8c2e"/>
      <stop offset="1" stop-color="#b8460f"/>
    </linearGradient>
    <linearGradient id="t5b" x1="0" y1="0" x2="0" y2="1">
      <stop offset="0" stop-color="#ffffff"/>
      <stop offset="1" stop-color="#bde6ff"/>
    </linearGradient>
  </defs>
  <path d="M8 .4c.8 2.2 3.4 3.1 3.4 6.2 0 1.1-.5 2-1.2 2.7.6-.7.8-1.4.6-2.2-.3-.8-1-1.3-1.8-1.9-.9 1.1-1.2 2.1-2 3.1-.5-1-.8-2.1-.5-3-.9.7-1.5 1.8-1.5 2.9 0 1.9 1.3 3.6 3.1 4.3.6.3 1.3.4 1.9.4 2.7 0 4.9-2.1 4.9-4.7 0-3.5-3.2-5.4-4.8-9-.4.4-.7.8-1.1 1.2Z" fill="url(#t5)"/>
  <path d="M8 5.6 9.4 7.8 8 11.2 6.6 7.8Z" fill="url(#t5b)"/>
  <circle cx="11.5" cy="3.5" r=".7" fill="#fff" opacity=".9"/>
  <circle cx="3.8" cy="12" r=".55" fill="#fff" opacity=".7"/>
</svg>
