<svg xmlns="http://www.w3.org/2000/svg" viewBox="0 0 16 16" width="16" height="16">
  <defs>
    <linearGradient id="t4" x1="0" y1="0" x2="0" y2="1">
      <stop offset="0" stop-color="#ff8fa6"/>
      <stop offset=".55" stop-color="#e91e3a"/>
      <stop offset="1" stop-color="#7a0d1f"/>
    </linearGradient>
  </defs>
  <path d="M8 .8c.7 2 3 2.9 3 5.7 0 1-.4 1.9-1.1 2.5.5-.6.7-1.3.5-2-.3-.8-.9-1.2-1.6-1.8-.8 1-1.1 1.9-1.8 2.8-.5-.9-.7-1.9-.4-2.7C5.8 6 5.3 7 5.3 8c0 1.7 1.2 3.3 2.8 4 .6.3 1.2.4 1.7.4 2.5 0 4.5-1.9 4.5-4.4 0-3.2-2.9-5-4.4-8.3-.4.4-.7.7-.9 1.1Z" fill="url(#t4)"/>
  <path d="M5.4 7.4 8 4.7l2.6 2.7L8 13Z" fill="#fff" opacity=".25"/>
  <path d="M7 8.5 8 7l1 1.5-1 2.5Z" fill="#fff" opacity=".55"/>
</svg>
