<?xml version="1.0" encoding="UTF-8"?>
<svg xmlns="http://www.w3.org/2000/svg" width="1024" height="1024" viewBox="0 0 1024 1024" fill="none">
  <defs>
    <linearGradient id="bg-shen-yi-cbt-coach-svg" x1="96" y1="64" x2="944" y2="976" gradientUnits="userSpaceOnUse">
      <stop offset="0" stop-color="#2E5970" />
      <stop offset="1" stop-color="#C8DDEB" />
    </linearGradient>
    <radialGradient id="glow-shen-yi-cbt-coach-svg" cx="0" cy="0" r="1" gradientUnits="userSpaceOnUse" gradientTransform="translate(760 212) rotate(126) scale(512)">
      <stop stop-color="rgba(255, 255, 255, 0.5)" />
      <stop offset="1" stop-color="rgba(255, 255, 255, 0)" />
    </radialGradient>
    <linearGradient id="sheen-shen-yi-cbt-coach-svg" x1="180" y1="100" x2="840" y2="920" gradientUnits="userSpaceOnUse">
      <stop stop-color="rgba(255,255,255,0.34)" />
      <stop offset="0.45" stop-color="rgba(255,255,255,0.08)" />
      <stop offset="1" stop-color="rgba(255,255,255,0.02)" />
    </linearGradient>
  </defs>
  <rect width="1024" height="1024" rx="232" fill="url(#bg-shen-yi-cbt-coach-svg)" />
  <rect width="1024" height="1024" rx="232" fill="url(#glow-shen-yi-cbt-coach-svg)" />
  <circle cx="770" cy="214" r="178" fill="rgba(255, 255, 255, 0.08)" />
  <circle cx="256" cy="826" r="154" fill="rgba(255, 255, 255, 0.12)" />
  <rect x="96" y="96" width="832" height="832" rx="196" fill="url(#sheen-shen-yi-cbt-coach-svg)" stroke="rgba(255, 255, 255, 0.12)" stroke-width="2" />
  <circle cx="512" cy="438" r="224" fill="rgba(255, 255, 255, 0.12)" stroke="rgba(255, 255, 255, 0.14)" stroke-width="2" />
  <path d="M154 766C220 702 314 662 408 662H616C738 662 834 742 870 862" stroke="rgba(255, 255, 255, 0.12)" stroke-width="28" stroke-linecap="round" />
  <rect x="650" y="676" width="206" height="206" rx="76" fill="rgba(255, 255, 255, 0.14)" stroke="rgba(255, 255, 255, 0.16)" stroke-width="2" />
  <circle cx="820" cy="164" r="32" fill="rgba(255, 255, 255, 0.32)" />
  <circle cx="206" cy="200" r="18" fill="rgba(255, 255, 255, 0.18)" />
  <g transform="translate(364.00 290.00) scale(12.3333)" fill="none" stroke="#FFFFFF" stroke-width="2.2" stroke-linecap="round" stroke-linejoin="round" vector-effect="non-scaling-stroke" opacity="1">
    <path d="M11 20A7 7 0 0 1 9.8 6.1C15.5 5 17 4.48 19.2 2.5c1 1.5 1 5.7 1 7.5C20.2 16.9 14.5 20 11 20Z" />
    <path d="M2 21c0-3 1.85-5.36 5.08-6" />
  </g>
  <g transform="translate(695.00 720.00) scale(4.8333)" fill="none" stroke="#FFFFFF" stroke-width="2.2" stroke-linecap="round" stroke-linejoin="round" vector-effect="non-scaling-stroke" opacity="0.98">
    <path d="M19 14c1.49-1.46 3-3.21 3-5.5A5.5 5.5 0 0 0 16.5 3c-1.76 0-3 .5-4.5 2-1.5-1.5-2.74-2-4.5-2A5.5 5.5 0 0 0 2 8.5c0 2.3 1.5 4.05 3 5.5l7 7Z" />
    <path d="M3.22 12H9.5l.5-1 2 4.5 2-7 1.5 3.5h5.27" />
  </g>
</svg>
